<?xml version="1.0" encoding="utf-8"?><svg xmlns="http://www.w3.org/2000/svg" xmlns:xlink="http://www.w3.org/1999/xlink"><symbol class="aionicon" viewBox="0 0 512 512" id="ban-outline" xmlns="http://www.w3.org/2000/svg"><circle cx="256" cy="256" r="208" stroke-miterlimit="10" stroke-width="32"/><path stroke-miterlimit="10" stroke-width="32" d="M108.92 108.92l294.16 294.16"/></symbol><symbol class="bionicon" viewBox="0 0 512 512" id="bar-chart-outline" xmlns="http://www.w3.org/2000/svg"><path d="M32 32v432a16 16 0 0016 16h432" stroke-linecap="round" stroke-linejoin="round" stroke-width="32"/><rect x="96" y="224" width="80" height="192" rx="20" ry="20" stroke-linecap="round" stroke-linejoin="round" stroke-width="32"/><rect x="240" y="176" width="80" height="240" rx="20" ry="20" stroke-linecap="round" stroke-linejoin="round" stroke-width="32"/><rect x="383.64" y="112" width="80" height="304" rx="20" ry="20" stroke-linecap="round" stroke-linejoin="round" stroke-width="32"/></symbol><symbol class="cionicon" viewBox="0 0 512 512" id="call-outline" xmlns="http://www.w3.org/2000/svg"><path d="M451 374c-15.88-16-54.34-39.35-73-48.76-24.3-12.24-26.3-13.24-45.4.95-12.74 9.47-21.21 17.93-36.12 14.75s-47.31-21.11-75.68-49.39-47.34-61.62-50.53-76.48 5.41-23.23 14.79-36c13.22-18 12.22-21 .92-45.3-8.81-18.9-32.84-57-48.9-72.8C119.9 44 119.9 47 108.83 51.6A160.15 160.15 0 0083 65.37C67 76 58.12 84.83 51.91 98.1s-9 44.38 23.07 102.64 54.57 88.05 101.14 134.49S258.5 406.64 310.85 436c64.76 36.27 89.6 29.2 102.91 23s22.18-15 32.83-31a159.09 159.09 0 0013.8-25.8C465 391.17 468 391.17 451 374z" stroke-miterlimit="10" stroke-width="32"/></symbol><symbol class="dionicon" viewBox="0 0 512 512" id="cart-outline" xmlns="http://www.w3.org/2000/svg"><circle cx="176" cy="416" r="16" stroke-linecap="round" stroke-linejoin="round" stroke-width="32"/><circle cx="400" cy="416" r="16" stroke-linecap="round" stroke-linejoin="round" stroke-width="32"/><path stroke-linecap="round" stroke-linejoin="round" stroke-width="32" d="M48 80h64l48 272h256"/><path d="M160 288h249.44a8 8 0 007.85-6.43l28.8-144a8 8 0 00-7.85-9.57H128" stroke-linecap="round" stroke-linejoin="round" stroke-width="32"/></symbol><symbol class="eionicon" viewBox="0 0 512 512" id="checkmark-circle-outline" xmlns="http://www.w3.org/2000/svg"><path d="M448 256c0-106-86-192-192-192S64 150 64 256s86 192 192 192 192-86 192-192z" stroke-miterlimit="10" stroke-width="32"/><path stroke-linecap="round" stroke-linejoin="round" stroke-width="32" d="M352 176L217.6 336 160 272"/></symbol><symbol class="fionicon" viewBox="0 0 512 512" id="location-outline" xmlns="http://www.w3.org/2000/svg"><path d="M256 48c-79.5 0-144 61.39-144 137 0 87 96 224.87 131.25 272.49a15.77 15.77 0 0025.5 0C304 409.89 400 272.07 400 185c0-75.61-64.5-137-144-137z" stroke-linecap="round" stroke-linejoin="round" stroke-width="32"/><circle cx="256" cy="192" r="48" stroke-linecap="round" stroke-linejoin="round" stroke-width="32"/></symbol><symbol class="gionicon" viewBox="0 0 512 512" id="logo-instagram" xmlns="http://www.w3.org/2000/svg"><path d="M349.33 69.33a93.62 93.62 0 0193.34 93.34v186.66a93.62 93.62 0 01-93.34 93.34H162.67a93.62 93.62 0 01-93.34-93.34V162.67a93.62 93.62 0 0193.34-93.34h186.66m0-37.33H162.67C90.8 32 32 90.8 32 162.67v186.66C32 421.2 90.8 480 162.67 480h186.66C421.2 480 480 421.2 480 349.33V162.67C480 90.8 421.2 32 349.33 32z"/><path d="M377.33 162.67a28 28 0 1128-28 27.94 27.94 0 01-28 28zM256 181.33A74.67 74.67 0 11181.33 256 74.75 74.75 0 01256 181.33m0-37.33a112 112 0 10112 112 112 112 0 00-112-112z"/></symbol><symbol class="hionicon" viewBox="0 0 512 512" id="logo-vk" xmlns="http://www.w3.org/2000/svg"><path d="M484.7 132c3.56-11.28 0-19.48-15.75-19.48h-52.37c-13.21 0-19.31 7.18-22.87 14.86 0 0-26.94 65.6-64.56 108.13-12.2 12.3-17.79 16.4-24.4 16.4-3.56 0-8.14-4.1-8.14-15.37V131.47c0-13.32-4.06-19.47-15.25-19.47H199c-8.14 0-13.22 6.15-13.22 12.3 0 12.81 18.81 15.89 20.84 51.76V254c0 16.91-3 20-9.66 20-17.79 0-61-66.11-86.92-141.44C105 117.64 99.88 112 86.66 112H33.79C18.54 112 16 119.17 16 126.86c0 13.84 17.79 83.53 82.86 175.77 43.21 63 104.72 96.86 160.13 96.86 33.56 0 37.62-7.69 37.62-20.5v-47.66c0-15.37 3.05-17.93 13.73-17.93 7.62 0 21.35 4.09 52.36 34.33C398.28 383.6 404.38 400 424.21 400h52.36c15.25 0 22.37-7.69 18.3-22.55-4.57-14.86-21.86-36.38-44.23-62-12.2-14.34-30.5-30.23-36.09-37.92-7.62-10.25-5.59-14.35 0-23.57-.51 0 63.55-91.22 70.15-122" fill-rule="evenodd"/></symbol><symbol class="iionicon" viewBox="0 0 512 512" id="logo-youtube" xmlns="http://www.w3.org/2000/svg"><path d="M508.64 148.79c0-45-33.1-81.2-74-81.2C379.24 65 322.74 64 265 64h-18c-57.6 0-114.2 1-169.6 3.6C36.6 67.6 3.5 104 3.5 149 1 184.59-.06 220.19 0 255.79q-.15 53.4 3.4 106.9c0 45 33.1 81.5 73.9 81.5 58.2 2.7 117.9 3.9 178.6 3.8q91.2.3 178.6-3.8c40.9 0 74-36.5 74-81.5 2.4-35.7 3.5-71.3 3.4-107q.34-53.4-3.26-106.9zM207 353.89v-196.5l145 98.2z"/></symbol><symbol class="jionicon" viewBox="0 0 512 512" id="mail-open-outline" xmlns="http://www.w3.org/2000/svg"><path d="M441.6 171.61L266.87 85.37a24.57 24.57 0 00-21.74 0L70.4 171.61A40 40 0 0048 207.39V392c0 22.09 18.14 40 40.52 40h335c22.38 0 40.52-17.91 40.52-40V207.39a40 40 0 00-22.44-35.78z" stroke-linecap="round" stroke-linejoin="round" stroke-width="32"/><path d="M397.33 368L268.07 267.46a24 24 0 00-29.47 0L109.33 368m200-73l136-103m-384 0l139 105" stroke-linecap="round" stroke-linejoin="round" stroke-width="32"/></symbol><symbol class="kionicon" viewBox="0 0 512 512" id="menu-outline" xmlns="http://www.w3.org/2000/svg"><path stroke-linecap="round" stroke-miterlimit="10" stroke-width="32" d="M80 160h352M80 256h352M80 352h352"/></symbol><symbol class="lionicon" viewBox="0 0 512 512" id="paper-plane-outline" xmlns="http://www.w3.org/2000/svg"><path d="M53.12 199.94l400-151.39a8 8 0 0110.33 10.33l-151.39 400a8 8 0 01-15-.34l-67.4-166.09a16 16 0 00-10.11-10.11L53.46 215a8 8 0 01-.34-15.06zM460 52L227 285" stroke-linecap="round" stroke-linejoin="round" stroke-width="32"/></symbol><symbol class="mionicon" viewBox="0 0 512 512" id="person-outline" xmlns="http://www.w3.org/2000/svg"><path d="M344 144c-3.92 52.87-44 96-88 96s-84.15-43.12-88-96c-4-55 35-96 88-96s92 42 88 96z" stroke-linecap="round" stroke-linejoin="round" stroke-width="32"/><path d="M256 304c-87 0-175.3 48-191.64 138.6C62.39 453.52 68.57 464 80 464h352c11.44 0 17.62-10.48 15.65-21.4C431.3 352 343 304 256 304z" stroke-miterlimit="10" stroke-width="32"/></symbol><symbol class="nionicon" viewBox="0 0 512 512" id="podium-outline" xmlns="http://www.w3.org/2000/svg"><path d="M32 160v296a8 8 0 008 8h136V160a16 16 0 00-16-16H48a16 16 0 00-16 16zM320 48H192a16 16 0 00-16 16v400h160V64a16 16 0 00-16-16zm144 160H352a16 16 0 00-16 16v240h136a8 8 0 008-8V224a16 16 0 00-16-16z" stroke-linecap="round" stroke-linejoin="round" stroke-width="32"/></symbol><symbol class="oionicon" viewBox="0 0 512 512" id="reorder-four-outline" xmlns="http://www.w3.org/2000/svg"><path stroke-linecap="round" stroke-linejoin="round" stroke-width="32" d="M96 304h320M96 208h320M96 112h320M96 400h320"/></symbol><symbol class="pionicon" viewBox="0 0 512 512" id="rocket-outline" xmlns="http://www.w3.org/2000/svg"><path d="M461.81 53.81a4.4 4.4 0 00-3.3-3.39c-54.38-13.3-180 34.09-248.13 102.17a294.9 294.9 0 00-33.09 39.08c-21-1.9-42-.3-59.88 7.5-50.49 22.2-65.18 80.18-69.28 105.07a9 9 0 009.8 10.4l81.07-8.9a180.29 180.29 0 001.1 18.3 18.15 18.15 0 005.3 11.09l31.39 31.39a18.15 18.15 0 0011.1 5.3 179.91 179.91 0 0018.19 1.1l-8.89 81a9 9 0 0010.39 9.79c24.9-4 83-18.69 105.07-69.17 7.8-17.9 9.4-38.79 7.6-59.69a293.91 293.91 0 0039.19-33.09c68.38-68 115.47-190.86 102.37-247.95zM298.66 213.67a42.7 42.7 0 1160.38 0 42.65 42.65 0 01-60.38 0z" stroke-linecap="round" stroke-linejoin="round" stroke-width="32"/><path d="M109.64 352a45.06 45.06 0 00-26.35 12.84C65.67 382.52 64 448 64 448s65.52-1.67 83.15-19.31A44.73 44.73 0 00160 402.32" stroke-linecap="round" stroke-linejoin="round" stroke-width="32"/></symbol><symbol class="qionicon" viewBox="0 0 512 512" id="search-outline" xmlns="http://www.w3.org/2000/svg"><path d="M221.09 64a157.09 157.09 0 10157.09 157.09A157.1 157.1 0 00221.09 64z" stroke-miterlimit="10" stroke-width="32"/><path stroke-linecap="round" stroke-miterlimit="10" stroke-width="32" d="M338.29 338.29L448 448"/></symbol><symbol class="rionicon" viewBox="0 0 512 512" id="stats-chart-outline" xmlns="http://www.w3.org/2000/svg"><rect x="64" y="320" width="48" height="160" rx="8" ry="8" stroke-linecap="round" stroke-linejoin="round" stroke-width="32"/><rect x="288" y="224" width="48" height="256" rx="8" ry="8" stroke-linecap="round" stroke-linejoin="round" stroke-width="32"/><rect x="400" y="112" width="48" height="368" rx="8" ry="8" stroke-linecap="round" stroke-linejoin="round" stroke-width="32"/><rect x="176" y="32" width="48" height="448" rx="8" ry="8" stroke-linecap="round" stroke-linejoin="round" stroke-width="32"/></symbol><symbol overflow="hidden" viewBox="0 0 0 0" id="symbol-defs" xmlns="http://www.w3.org/2000/svg"><defs><symbol id="sicon-heart" viewBox="0 0 32 32"><path d="M23.6 2c-3.363 0-6.258 2.736-7.599 5.594C14.659 4.736 11.764 2 8.4 2 3.763 2 0 5.764 0 10.401c0 9.433 9.516 11.906 16.001 21.232C22.131 22.365 32 19.533 32 10.401 32 5.764 28.237 2 23.6 2z"/></symbol></defs></symbol><symbol class="tionicon" viewBox="0 0 512 512" id="wallet-outline" xmlns="http://www.w3.org/2000/svg"><rect x="48" y="144" width="416" height="288" rx="48" ry="48" stroke-linejoin="round" stroke-width="32"/><path d="M411.36 144v-30A50 50 0 00352 64.9L88.64 109.85A50 50 0 0048 159v49" stroke-linejoin="round" stroke-width="32"/><path d="M368 320a32 32 0 1132-32 32 32 0 01-32 32z"/></symbol></svg>